<?xml version="1.0" standalone="no"?>
<!DOCTYPE svg PUBLIC "-//W3C//DTD SVG 20010904//EN"
 "http://www.w3.org/TR/2001/REC-SVG-20010904/DTD/svg10.dtd">
<svg version="1.0" xmlns="http://www.w3.org/2000/svg"
 width="50.000000pt" height="50.000000pt" viewBox="0 0 50.000000 50.000000"
 preserveAspectRatio="xMidYMid meet">

<g transform="translate(0.000000,50.000000) scale(0.100000,-0.100000)"
fill="#000000" stroke="none">
<path d="M190 478 c0 -22 31 -23 70 -3 17 9 30 17 30 19 0 2 -22 3 -50 2 -40
-1 -50 -4 -50 -18z"/>
<path d="M195 443 c-38 -8 -71 -16 -73 -18 -2 -2 4 -15 14 -30 11 -18 19 -54
22 -107 l5 -80 41 6 c22 3 64 8 93 11 49 6 52 8 55 38 9 91 -30 198 -70 196
-9 -1 -48 -8 -87 -16z"/>
<path d="M340 428 c0 -2 9 -27 20 -56 11 -29 20 -66 20 -83 0 -31 0 -31 43
-24 58 9 77 15 77 25 0 11 -140 140 -151 140 -5 0 -9 -1 -9 -2z"/>
<path d="M5 261 c-10 -16 7 -92 22 -98 7 -3 20 -18 28 -32 18 -35 84 -59 119
-43 18 8 32 8 55 0 22 -9 36 -9 55 0 18 8 32 8 55 0 22 -9 36 -9 56 0 15 7 30
10 35 7 9 -6 54 83 66 129 l7 29 -69 -7 c-57 -6 -72 -12 -87 -32 -17 -22 -25
-24 -103 -24 l-84 0 -20 40 c-20 39 -21 40 -75 40 -29 0 -56 -4 -60 -9z m435
-61 c0 -5 -9 -10 -21 -10 -11 0 -17 5 -14 10 3 6 13 10 21 10 8 0 14 -4 14
-10z"/>
<path d="M69 69 c-8 -5 -24 -9 -36 -9 -13 0 -23 -4 -23 -8 0 -10 476 -10 486
0 4 5 -6 8 -22 8 -16 0 -35 4 -43 9 -7 5 -25 4 -42 -2 -20 -8 -37 -8 -56 -1
-19 7 -37 7 -56 0 -18 -7 -37 -7 -55 0 -18 7 -36 7 -55 0 -19 -7 -37 -7 -56 1
-17 6 -35 7 -42 2z"/>
<path d="M69 29 c-8 -5 -24 -9 -36 -9 -13 0 -23 -4 -23 -8 0 -10 476 -10 486
0 4 5 -6 8 -22 8 -16 0 -35 4 -43 9 -7 5 -25 4 -42 -2 -20 -8 -37 -8 -56 -1
-19 7 -37 7 -56 0 -18 -7 -37 -7 -55 0 -18 7 -36 7 -55 0 -19 -7 -37 -7 -56 1
-17 6 -35 7 -42 2z"/>
</g>
</svg>
